<svg xmlns="http://www.w3.org/2000/svg" xmlns:xlink="http://www.w3.org/1999/xlink" width="440" height="304" viewBox="0 0 440 304" role="img" aria-labelledby="t d"><title id="t">GateKeeper</title><desc id="d">GateKeeper — Reactive zero-trust API gateway on Spring Cloud Gateway and Netty. Verifies JWTs against JWKS with a pinned issuer, authenticates API keys, and strips forged identity headers. 70 tests · WireMock + Redis.</desc><style>@keyframes fadeUp{from{opacity:0;transform:translateY(10px)}}@keyframes fadeIn{from{opacity:0}}@keyframes blink{50%{opacity:0}}@keyframes pulse{from{transform:scale(1);opacity:.75}to{transform:scale(2.2);opacity:0}}.ring{transform-box:fill-box;transform-origin:center;animation:pulse 2.8s ease-out infinite}@media (prefers-reduced-motion:reduce){*{animation:none!important}.motion{display:none}}.mono{font-family:ui-monospace,SFMono-Regular,'SF Mono',Menlo,Consolas,'Liberation Mono',monospace}.sans{font-family:-apple-system,BlinkMacSystemFont,'Segoe UI','Noto Sans',Helvetica,Arial,sans-serif}@keyframes sheen{0%{transform:translateX(-160px)}35%,100%{transform:translateX(480px)}}.sh{animation:sheen 10s ease-in-out 2.8s infinite backwards}</style><defs><clipPath id="c"><rect width="440" height="304" rx="16"/></clipPath><radialGradient id="g" cx="1" cy="0" r=".9"><stop offset="0" stop-color="#22D3EE" stop-opacity=".13"/><stop offset="1" stop-color="#22D3EE" stop-opacity="0"/></radialGradient><linearGradient id="s" x1="0" x2="1"><stop offset="0" stop-color="#fff" stop-opacity="0"/><stop offset=".5" stop-color="#fff" stop-opacity=".06"/><stop offset="1" stop-color="#fff" stop-opacity="0"/></linearGradient><path id="g700-G" d="M428 -19Q330 -19 257 14Q184 46 136 101Q89 156 66 223Q43 290 43 357V379Q43 448 66 514Q89 580 136 634Q182 688 252 720Q321 752 412 752Q511 752 587 716Q663 679 709 614Q755 550 762 465H598Q592 505 566 535Q541 565 502 582Q462 599 412 599Q364 599 326 582Q289 565 262 534Q236 503 222 460Q209 418 209 367Q209 314 224 270Q238 227 266 196Q294 164 336 147Q377 130 428 130Q496 130 546 158Q596 186 618 232L598 120V294H749V138Q702 62 620 22Q537 -19 428 -19ZM407 262V380H809V262Z"/><path id="g700-a" d="M404 0V162H377V338Q377 380 357 401Q337 422 293 422Q271 422 235 421Q199 420 161 418Q123 416 92 414V549Q115 551 146 553Q177 555 210 556Q243 557 272 557Q356 557 414 533Q471 509 501 460Q531 412 531 336V0ZM229 -14Q170 -14 126 7Q81 28 56 68Q31 107 31 162Q31 222 62 260Q93 299 149 318Q205 336 278 336H395V247H277Q235 247 212 226Q190 206 190 171Q190 138 212 118Q235 97 277 97Q304 97 326 106Q347 116 361 139Q375 162 377 203L415 163Q410 106 388 67Q365 28 326 7Q286 -14 229 -14Z"/><path id="g700-t" d="M322 -7Q239 -7 188 14Q137 34 114 82Q90 131 90 214V696H239V208Q239 169 260 148Q280 128 318 128H399V-7ZM7 431V548H399V431Z"/><path id="g700-e" d="M324 -19Q254 -19 200 5Q147 29 112 70Q76 110 58 160Q39 211 39 264V284Q39 339 58 390Q76 440 111 480Q146 520 198 544Q251 567 318 567Q406 567 466 528Q527 488 559 424Q591 361 591 286V232H106V323H494L442 281Q442 330 428 365Q414 400 386 418Q359 437 318 437Q276 437 247 418Q218 399 203 362Q188 326 188 273Q188 224 202 188Q216 151 246 131Q276 111 324 111Q368 111 396 128Q424 145 434 170H581Q569 115 534 72Q499 29 446 5Q393 -19 324 -19Z"/><path id="g700-K" d="M562 0 310 341H209L515 730H703L428 381L426 452L760 0ZM82 0V730H246V0Z"/><path id="g700-p" d="M73 -200V548H200V311L183 312Q187 394 217 450Q247 507 298 536Q349 564 413 564Q470 564 516 543Q563 522 596 484Q630 447 648 396Q665 346 665 286V263Q665 204 648 152Q631 101 598 63Q566 25 520 4Q473 -18 413 -18Q351 -18 302 8Q252 33 222 86Q192 138 189 219L233 159V-200ZM368 116Q409 116 440 136Q470 156 487 192Q504 228 504 275Q504 322 487 357Q470 392 440 412Q410 431 368 431Q332 431 300 414Q268 397 248 366Q229 334 229 289V252Q229 209 250 178Q270 148 302 132Q334 116 368 116Z"/><path id="g700-r" d="M73 0V548H200V313H197Q197 429 246 492Q296 555 390 555H411V417H371Q305 417 269 382Q233 346 233 279V0Z"/><path id="g600-G" d="M430 -19Q336 -19 264 12Q193 44 144 98Q96 151 72 218Q47 286 47 359V381Q47 450 71 516Q95 582 142 635Q188 688 256 720Q325 751 414 751Q510 751 584 716Q658 680 703 616Q748 553 756 469H613Q606 516 578 550Q550 583 508 601Q465 619 414 619Q363 619 322 601Q280 583 251 550Q222 517 206 471Q191 425 191 369Q191 308 208 260Q225 212 256 178Q287 145 331 128Q375 110 430 110Q503 110 558 140Q613 171 638 220L613 105V293H744V131Q697 60 616 20Q535 -19 430 -19ZM407 265V371H805V265Z"/><path id="g600-A" d="M18 0 267 730H499L755 0H609L392 633L443 611H318L370 633L160 0ZM192 194 237 314H533L577 194Z"/><path id="g600-T" d="M234 0V625H376V0ZM23 605V730H587V605Z"/><path id="g600-E" d="M90 0V730H229V0ZM209 0V120H540V0ZM209 311V431H514V311ZM209 610V730H532V610Z"/><path id="g600-W" d="M210 0 24 730H171L322 95L283 118H383L339 95L458 702H580L432 0ZM646 0 485 702H612L749 95L706 118H804L766 95L899 730H1038L872 0Z"/><path id="g600-Y" d="M230 279 10 730H156L324 377L292 387H387L353 377L506 730H644L441 279ZM266 0V301H405V0Z"/><path id="g500-W" d="M218 0 27 730H151L312 79L269 103H378L331 79L460 701H566L413 0ZM656 0 488 701H599L746 79L700 103H809L764 79L907 730H1025L853 0Z"/><path id="g500-e" d="M321 -18Q251 -18 199 6Q147 30 114 70Q81 109 64 158Q48 208 48 260V279Q48 332 64 382Q81 431 114 470Q147 510 198 534Q248 557 315 557Q402 557 460 519Q518 481 547 420Q576 360 576 290V243H98V322H497L465 282Q465 336 448 376Q431 415 398 436Q365 458 315 458Q263 458 228 434Q193 410 176 368Q159 326 159 269Q159 215 176 172Q193 130 229 106Q265 81 321 81Q377 81 413 106Q449 130 457 163H566Q555 108 522 67Q488 26 437 4Q386 -18 321 -18Z"/><path id="g500-b" d="M386 -18Q320 -18 268 11Q217 40 188 95Q158 150 155 228H179V0H86V730H203V370L168 305Q171 391 202 446Q232 502 282 529Q332 556 394 556Q451 556 498 535Q544 514 578 476Q611 439 628 389Q646 339 646 281V261Q646 203 628 153Q610 103 576 64Q541 26 493 4Q445 -18 386 -18ZM365 83Q414 83 451 107Q488 131 508 174Q529 216 529 271Q529 327 508 368Q487 410 450 433Q414 456 365 456Q321 456 283 436Q245 416 222 378Q199 341 199 288V245Q199 194 222 158Q246 121 284 102Q322 83 365 83Z"/><path id="g500-F" d="M98 0V730H218V0ZM198 315V419H501V315ZM198 626V730H516V626Z"/><path id="g500-l" d="M92 0V730H210V0ZM21 640V730H210V640Z"/><path id="g500-u" d="M271 -16Q176 -16 125 46Q74 107 74 227V539H191V211Q191 155 222 122Q253 90 306 90Q360 90 394 124Q429 159 429 219V539H546V0H453V230H465Q465 149 444 94Q422 40 380 12Q339 -16 276 -16Z"/><path id="g500-x" d="M23 0 207 285 203 264 31 539H159L278 343H293L405 539H525L362 268L365 287L558 0H430L290 211H276L143 0Z"/><path id="g500-i" d="M112 0V539H229V0ZM33 449V539H229V449ZM150 614Q114 614 96 633Q79 652 79 682Q79 711 96 730Q114 750 150 750Q187 750 204 730Q222 711 222 682Q222 652 204 633Q187 614 150 614Z"/><path id="g500-r" d="M86 0V539H179V314H175Q175 430 226 488Q277 545 377 545H396V442H360Q284 442 244 402Q203 361 203 286V0Z"/><path id="g500-M" d="M98 0V730H260L460 269H477L675 730H839V0H720V623L732 621L530 150H398L194 621L208 623V0Z"/><path id="g500-o" d="M339 -18Q268 -18 214 6Q160 29 123 68Q86 107 67 156Q48 206 48 259V279Q48 332 68 382Q87 432 124 472Q162 511 216 534Q270 557 339 557Q408 557 462 534Q515 511 553 472Q591 432 610 382Q630 332 630 279V259Q630 206 611 156Q592 107 555 68Q518 29 464 6Q410 -18 339 -18ZM339 84Q394 84 433 108Q472 133 492 175Q513 217 513 269Q513 322 492 364Q471 406 432 430Q393 455 339 455Q285 455 246 430Q207 406 186 364Q165 322 165 269Q165 217 186 175Q206 133 245 108Q284 84 339 84Z"/><path id="g500-c" d="M320 -18Q251 -18 200 6Q148 29 114 70Q81 110 64 160Q48 209 48 260V278Q48 331 65 380Q82 430 116 470Q150 510 200 534Q251 557 319 557Q388 557 442 531Q497 505 530 458Q563 410 567 347H454Q448 392 414 423Q379 454 319 454Q267 454 233 430Q199 406 182 364Q165 323 165 269Q165 217 182 175Q198 133 232 109Q267 85 320 85Q361 85 390 100Q420 114 438 138Q456 163 459 195H573Q570 130 536 82Q502 35 446 8Q390 -18 320 -18Z"/><path id="g500-k" d="M460 0 268 251H184L421 539H545L327 277L332 337L594 0ZM86 0V730H203V0Z"/><path id="g600-O" d="M433 -19Q334 -19 262 16Q189 51 142 108Q94 164 70 230Q47 295 47 356V378Q47 445 71 512Q95 578 144 632Q192 686 264 718Q336 751 433 751Q529 751 601 718Q673 686 722 632Q770 578 794 512Q818 445 818 378V356Q818 295 794 230Q771 164 724 108Q676 51 604 16Q531 -19 433 -19ZM433 113Q489 113 534 133Q578 153 610 188Q641 224 658 270Q674 315 674 366Q674 421 658 467Q641 513 610 547Q578 581 533 600Q488 619 433 619Q377 619 332 600Q287 581 256 547Q224 513 208 467Q191 421 191 366Q191 315 208 270Q224 224 256 188Q287 153 332 133Q377 113 433 113Z"/><path id="g600-p" d="M79 -200V543H189V309L172 310Q176 393 206 449Q237 505 288 532Q339 560 402 560Q460 560 506 539Q553 518 586 480Q620 442 638 392Q656 341 656 283V262Q656 203 638 152Q621 102 588 64Q554 25 507 4Q460 -18 402 -18Q341 -18 290 8Q240 33 209 86Q178 140 174 225L218 158V-200ZM367 99Q412 99 446 121Q479 143 498 182Q517 222 517 272Q517 324 498 362Q479 400 446 422Q412 443 367 443Q326 443 292 425Q257 407 236 372Q214 337 214 288V248Q214 201 236 168Q258 135 293 117Q328 99 367 99Z"/><path id="g600-e" d="M322 -19Q252 -19 200 5Q147 29 112 70Q78 110 60 160Q43 210 43 262V281Q43 335 60 386Q78 436 112 476Q147 515 198 538Q249 562 316 562Q404 562 464 524Q523 485 553 422Q583 360 583 288V238H102V323H496L453 281Q453 333 438 370Q423 407 392 427Q362 447 316 447Q270 447 238 426Q206 405 190 366Q173 326 173 271Q173 220 189 180Q205 141 238 118Q271 96 322 96Q373 96 405 116Q437 137 446 167H574Q562 111 528 69Q494 27 442 4Q389 -19 322 -19Z"/><path id="g600-n" d="M79 0V543H189V310H179Q179 393 201 448Q223 504 266 532Q310 560 375 560H381Q478 560 528 498Q578 435 578 311V0H439V323Q439 373 410 404Q382 435 332 435Q281 435 250 404Q218 372 218 319V0Z"/><path id="g600-r" d="M79 0V543H189V313H186Q186 430 236 490Q286 550 383 550H403V429H365Q295 429 256 392Q218 354 218 283V0Z"/><path id="g600-o" d="M340 -19Q268 -19 213 4Q158 27 120 66Q82 106 62 156Q43 206 43 260V281Q43 337 64 388Q84 438 122 478Q161 517 216 540Q271 562 340 562Q409 562 464 540Q519 517 558 478Q596 438 616 388Q636 337 636 281V260Q636 206 616 156Q597 106 559 66Q521 27 466 4Q411 -19 340 -19ZM340 100Q391 100 426 122Q461 145 479 184Q497 222 497 271Q497 321 478 360Q460 398 424 420Q389 443 340 443Q291 443 256 420Q220 398 201 360Q182 321 182 271Q182 222 200 184Q219 145 254 122Q289 100 340 100Z"/><path id="g600-s" d="M276 -17Q164 -17 100 30Q37 78 34 162H159Q162 134 190 111Q218 88 278 88Q328 88 358 106Q387 124 387 155Q387 182 364 198Q342 214 288 219L240 224Q149 234 100 276Q51 318 51 388Q51 444 79 482Q107 520 156 540Q206 559 270 559Q370 559 432 515Q494 471 497 386H372Q370 414 344 434Q318 454 269 454Q225 454 201 437Q177 420 177 393Q177 367 196 353Q216 339 260 334L308 329Q404 319 458 276Q513 233 513 160Q513 106 484 66Q454 27 401 5Q348 -17 276 -17Z"/><path id="g600-i" d="M105 0V543H244V0ZM29 439V543H244V439ZM156 608Q115 608 96 630Q76 651 76 684Q76 717 96 738Q115 759 156 759Q197 759 216 738Q235 717 235 684Q235 651 216 630Q197 608 156 608Z"/><path id="g600-t" d="M315 -7Q240 -7 192 12Q143 32 119 78Q95 125 95 204L96 696H226L225 195Q225 155 246 134Q268 112 308 112H393V-7ZM9 441V543H393V441Z"/><path id="g600-y" d="M63 -214V-95H165Q194 -95 214 -88Q233 -80 246 -64Q259 -47 266 -18L412 543H545L384 -48Q368 -109 339 -146Q310 -182 264 -198Q219 -214 152 -214ZM232 12V122H348V12ZM185 12 9 543H149L316 12Z"/></defs><g clip-path="url(#c)"><rect width="440" height="304" fill="#0E1628"/><rect width="440" height="304" fill="url(#g)"/><g class="sh motion"><rect x="0" width="120" height="304" fill="url(#s)"/></g></g><rect x=".75" y=".75" width="438.5" height="302.5" rx="15.5" fill="none" stroke="#223052" stroke-width="1.5"/><text x="24" y="36" font-size="12.5" fill="#5F6D8A" class="mono">ezat141 / gatekeeper</text><rect x="333.5" y="21" width="82.5" height="21" rx="10.5" fill="none" stroke="#22D3EE" stroke-opacity=".5"/><g fill="#22D3EE"><use href="#g600-G" transform="translate(344.52 36.2) scale(0.0105 -0.0105)"/><use href="#g600-A" transform="translate(354.27 36.2) scale(0.0105 -0.0105)"/><use href="#g600-T" transform="translate(362.83 36.2) scale(0.0105 -0.0105)"/><use href="#g600-E" transform="translate(370.34 36.2) scale(0.0105 -0.0105)"/><use href="#g600-W" transform="translate(377.69 36.2) scale(0.0105 -0.0105)"/><use href="#g600-A" transform="translate(389.59 36.2) scale(0.0105 -0.0105)"/><use href="#g600-Y" transform="translate(398.12 36.2) scale(0.0105 -0.0105)"/></g><g fill="#E6EDF7"><use href="#g700-G" transform="translate(23 72) scale(0.022 -0.022)"/><use href="#g700-a" transform="translate(41.33 72) scale(0.022 -0.022)"/><use href="#g700-t" transform="translate(54.39 72) scale(0.022 -0.022)"/><use href="#g700-e" transform="translate(63.9 72) scale(0.022 -0.022)"/><use href="#g700-K" transform="translate(77.63 72) scale(0.022 -0.022)"/><use href="#g700-e" transform="translate(93.77 72) scale(0.022 -0.022)"/><use href="#g700-e" transform="translate(107.5 72) scale(0.022 -0.022)"/><use href="#g700-p" transform="translate(121.23 72) scale(0.022 -0.022)"/><use href="#g700-e" transform="translate(136.7 72) scale(0.022 -0.022)"/><use href="#g700-r" transform="translate(150.42 72) scale(0.022 -0.022)"/></g><text x="24" y="106" font-size="14" fill="#9AA8BF" class="sans"><tspan x="24" dy="0">Reactive zero-trust API gateway on Spring Cloud</tspan><tspan x="24" dy="21">Gateway and Netty. Verifies JWTs against JWKS</tspan><tspan x="24" dy="21">with a pinned issuer, authenticates API keys, and</tspan><tspan x="24" dy="21">strips forged identity headers.</tspan></text><svg x="24" y="212" width="24" height="24" viewBox="0 0 128 128"><path fill="#0074BD" d="M47.617 98.12s-4.767 2.774 3.397 3.71c9.892 1.13 14.947.968 25.845-1.092 0 0 2.871 1.795 6.873 3.351-24.439 10.47-55.308-.607-36.115-5.969zm-2.988-13.665s-5.348 3.959 2.823 4.805c10.567 1.091 18.91 1.18 33.354-1.6 0 0 1.993 2.025 5.132 3.131-29.542 8.64-62.446.68-41.309-6.336z"/><path fill="#EA2D2E" d="M69.802 61.271c6.025 6.935-1.58 13.17-1.58 13.17s15.289-7.891 8.269-17.777c-6.559-9.215-11.587-13.792 15.635-29.58 0 .001-42.731 10.67-22.324 34.187z"/><path fill="#0074BD" d="M102.123 108.229s3.529 2.91-3.888 5.159c-14.102 4.272-58.706 5.56-71.094.171-4.451-1.938 3.899-4.625 6.526-5.192 2.739-.593 4.303-.485 4.303-.485-4.953-3.487-32.013 6.85-13.743 9.815 49.821 8.076 90.817-3.637 77.896-9.468zM49.912 70.294s-22.686 5.389-8.033 7.348c6.188.828 18.518.638 30.011-.326 9.39-.789 18.813-2.474 18.813-2.474s-3.308 1.419-5.704 3.053c-23.042 6.061-67.544 3.238-54.731-2.958 10.832-5.239 19.644-4.643 19.644-4.643zm40.697 22.747c23.421-12.167 12.591-23.86 5.032-22.285-1.848.385-2.677.72-2.677.72s.688-1.079 2-1.543c14.953-5.255 26.451 15.503-4.823 23.725 0-.002.359-.327.468-.617z"/><path fill="#EA2D2E" d="M76.491 1.587S89.459 14.563 64.188 34.51c-20.266 16.006-4.621 25.13-.007 35.559-11.831-10.673-20.509-20.07-14.688-28.815C58.041 28.42 81.722 22.195 76.491 1.587z"/><path fill="#0074BD" d="M52.214 126.021c22.476 1.437 57-.8 57.817-11.436 0 0-1.571 4.032-18.577 7.231-19.186 3.612-42.854 3.191-56.887.874 0 .001 2.875 2.381 17.647 3.331z"/></svg><svg x="56" y="212" width="24" height="24" viewBox="0 0 128 128"><path d="M116.452 6.643a59.104 59.104 0 01-6.837 12.136A64.249 64.249 0 0064.205-.026C28.984-.026 0 28.982 0 64.242a64.316 64.316 0 0019.945 46.562l2.368 2.1a64.22 64.22 0 0041.358 15.122c33.487 0 61.637-26.24 64.021-59.683 1.751-16.371-3.051-37.077-11.24-61.7zM29.067 111.17a5.5 5.5 0 01-4.269 2.034c-3.018 0-5.487-2.484-5.487-5.502 0-3.017 2.485-5.501 5.487-5.501 1.25 0 2.485.433 3.452 1.234 2.351 1.9 2.718 5.384.817 7.735zm87.119-19.238c-15.843 21.122-49.68 14.003-71.376 15.02 0 0-3.852.234-7.721.867 0 0 1.45-.617 3.335-1.334 15.226-5.301 22.43-6.335 31.685-11.086 17.427-8.869 34.654-28.274 38.24-48.463-6.637 19.422-26.75 36.11-45.077 42.895-12.557 4.635-35.238 9.136-35.238 9.136l-.917-.484c-15.442-7.518-15.91-40.977 12.157-51.78 12.291-4.735 24.048-2.134 37.323-5.302 14.175-3.367 30.568-14.004 37.238-27.874 7.471 22.19 16.46 56.932.35 78.405z" fill="#77bc1f"/></svg><svg x="88" y="212" width="24" height="24" viewBox="0 0 128 128"><path fill="#A41E11" d="M121.8 93.1c-6.7 3.5-41.4 17.7-48.8 21.6-7.4 3.9-11.5 3.8-17.3 1S13 98.1 6.3 94.9c-3.3-1.6-5-2.9-5-4.2V78s48-10.5 55.8-13.2c7.8-2.8 10.4-2.9 17-.5s46.1 9.5 52.6 11.9v12.5c0 1.3-1.5 2.7-4.9 4.4z"/><path fill="#D82C20" d="M121.8 80.5C115.1 84 80.4 98.2 73 102.1c-7.4 3.9-11.5 3.8-17.3 1-5.8-2.8-42.7-17.7-49.4-20.9C-.3 79-.5 76.8 6 74.3c6.5-2.6 43.2-17 51-19.7 7.8-2.8 10.4-2.9 17-.5s41.1 16.1 47.6 18.5c6.7 2.4 6.9 4.4.2 7.9z"/><path fill="#A41E11" d="M121.8 72.5C115.1 76 80.4 90.2 73 94.1c-7.4 3.8-11.5 3.8-17.3 1C49.9 92.3 13 77.4 6.3 74.2c-3.3-1.6-5-2.9-5-4.2V57.3s48-10.5 55.8-13.2c7.8-2.8 10.4-2.9 17-.5s46.1 9.5 52.6 11.9V68c0 1.3-1.5 2.7-4.9 4.5z"/><path fill="#D82C20" d="M121.8 59.8c-6.7 3.5-41.4 17.7-48.8 21.6-7.4 3.8-11.5 3.8-17.3 1C49.9 79.6 13 64.7 6.3 61.5s-6.8-5.4-.3-7.9c6.5-2.6 43.2-17 51-19.7 7.8-2.8 10.4-2.9 17-.5s41.1 16.1 47.6 18.5c6.7 2.4 6.9 4.4.2 7.9z"/><path fill="#A41E11" d="M121.8 51c-6.7 3.5-41.4 17.7-48.8 21.6-7.4 3.8-11.5 3.8-17.3 1C49.9 70.9 13 56 6.3 52.8c-3.3-1.6-5.1-2.9-5.1-4.2V35.9s48-10.5 55.8-13.2c7.8-2.8 10.4-2.9 17-.5s46.1 9.5 52.6 11.9v12.5c.1 1.3-1.4 2.6-4.8 4.4z"/><path fill="#D82C20" d="M121.8 38.3C115.1 41.8 80.4 56 73 59.9c-7.4 3.8-11.5 3.8-17.3 1S13 43.3 6.3 40.1s-6.8-5.4-.3-7.9c6.5-2.6 43.2-17 51-19.7 7.8-2.8 10.4-2.9 17-.5s41.1 16.1 47.6 18.5c6.7 2.4 6.9 4.4.2 7.8z"/><path fill="#fff" d="M80.4 26.1l-10.8 1.2-2.5 5.8-3.9-6.5-12.5-1.1 9.3-3.4-2.8-5.2 8.8 3.4 8.2-2.7L72 23zM66.5 54.5l-20.3-8.4 29.1-4.4z"/><ellipse fill="#fff" cx="38.4" cy="35.4" rx="15.5" ry="6"/><path fill="#7A0C00" d="M93.3 27.7l17.2 6.8-17.2 6.8z"/><path fill="#AD2115" d="M74.3 35.3l19-7.6v13.6l-1.9.8z"/></svg><rect x="120" y="213" width="70.7" height="22" rx="11" fill="#141E36" stroke="#223052"/><g fill="#9AA8BF"><use href="#g500-W" transform="translate(130 228.3) scale(0.0115 -0.0115)"/><use href="#g500-e" transform="translate(141.82 228.3) scale(0.0115 -0.0115)"/><use href="#g500-b" transform="translate(148.91 228.3) scale(0.0115 -0.0115)"/><use href="#g500-F" transform="translate(156.89 228.3) scale(0.0115 -0.0115)"/><use href="#g500-l" transform="translate(163.4 228.3) scale(0.0115 -0.0115)"/><use href="#g500-u" transform="translate(166.8 228.3) scale(0.0115 -0.0115)"/><use href="#g500-x" transform="translate(174.09 228.3) scale(0.0115 -0.0115)"/></g><rect x="198.7" y="213" width="79.8" height="22" rx="11" fill="#141E36" stroke="#223052"/><g fill="#9AA8BF"><use href="#g500-W" transform="translate(208.69 228.3) scale(0.0115 -0.0115)"/><use href="#g500-i" transform="translate(220.65 228.3) scale(0.0115 -0.0115)"/><use href="#g500-r" transform="translate(224.3 228.3) scale(0.0115 -0.0115)"/><use href="#g500-e" transform="translate(229 228.3) scale(0.0115 -0.0115)"/><use href="#g500-M" transform="translate(236.09 228.3) scale(0.0115 -0.0115)"/><use href="#g500-o" transform="translate(246.86 228.3) scale(0.0115 -0.0115)"/><use href="#g500-c" transform="translate(254.66 228.3) scale(0.0115 -0.0115)"/><use href="#g500-k" transform="translate(261.65 228.3) scale(0.0115 -0.0115)"/></g><line x1="24" y1="258" x2="416" y2="258" stroke="#223052"/><circle cx="28" cy="281" r="4" fill="none" stroke="#22D3EE" class="ring motion"/><circle cx="28" cy="281" r="4" fill="#22D3EE"/><text x="40" y="285" font-size="12.5" fill="#9AA8BF" class="mono">70 tests · WireMock + Redis</text><g fill="#22D3EE"><use href="#g600-O" transform="translate(294.55 285) scale(0.0125 -0.0125)"/><use href="#g600-p" transform="translate(305.36 285) scale(0.0125 -0.0125)"/><use href="#g600-e" transform="translate(314.1 285) scale(0.0125 -0.0125)"/><use href="#g600-n" transform="translate(321.85 285) scale(0.0125 -0.0125)"/><use href="#g600-r" transform="translate(332.65 285) scale(0.0125 -0.0125)"/><use href="#g600-e" transform="translate(337.81 285) scale(0.0125 -0.0125)"/><use href="#g600-p" transform="translate(345.56 285) scale(0.0125 -0.0125)"/><use href="#g600-o" transform="translate(354.3 285) scale(0.0125 -0.0125)"/><use href="#g600-s" transform="translate(362.79 285) scale(0.0125 -0.0125)"/><use href="#g600-i" transform="translate(369.65 285) scale(0.0125 -0.0125)"/><use href="#g600-t" transform="translate(373.71 285) scale(0.0125 -0.0125)"/><use href="#g600-o" transform="translate(379.06 285) scale(0.0125 -0.0125)"/><use href="#g600-r" transform="translate(387.55 285) scale(0.0125 -0.0125)"/><use href="#g600-y" transform="translate(392.98 285) scale(0.0125 -0.0125)"/></g><path d="M402 280.5 H411 M407 276.5 L411 280.5 L407 284.5" fill="none" stroke="#22D3EE" stroke-width="1.6" stroke-linecap="round" stroke-linejoin="round"/></svg>